<svg width="366" height="452" viewBox="0 0 366 452" fill="none" xmlns="http://www.w3.org/2000/svg">
<path fill-rule="evenodd" clip-rule="evenodd" d="M366 183C366 226.124 351.083 265.765 326.128 297.043H326.217L203.615 450.296L201.932 390.203C218.454 383.702 251.744 360.198 252.735 318.191C253.727 276.184 253.148 209.673 252.735 181.669C251.496 177.168 245.542 172.692 239.105 173.075C235.072 173.314 227.953 174.168 225.475 181.669V295.688C225.062 299.688 222.006 307.69 213.084 307.69C201.932 307.69 198.215 304.689 198.215 295.688V184.669C198.215 178.668 189.688 173.449 183.346 173.404C178.943 173.373 172.194 175.668 169.716 184.669V295.688C169.716 299.688 166.99 307.69 156.086 307.69C142.456 307.69 142.456 300.188 142.456 295.688V184.669C142.456 179.669 139.482 169.967 127.587 171.167C123.456 171.167 114.7 173.267 112.717 181.669V318.191C113.13 336.694 124.117 377.001 164.759 390.203L163.054 451.132L39.782 297.043H39.872C14.917 265.765 0 226.124 0 183C0 81.932 81.932 0 183 0C284.068 0 366 81.932 366 183Z" fill="#9DD74F"/>
<path d="M211.975 158.811C211.503 137.442 223.589 94.7051 275.708 94.7051C277.124 116.548 266.361 159.951 211.975 158.811Z" fill="white"/>
<path d="M183.649 123.196C198.756 104.677 219.906 59.9448 183.649 29.1738C168.542 43.4198 147.392 82.1678 183.649 123.196Z" fill="white"/>
<path d="M156.74 158.811C155.795 137.442 141.16 94.7051 90.1738 94.7051C92.0618 117.973 108.019 163.37 156.74 158.811Z" fill="white"/>
</svg>
