<svg width="137" height="76" viewBox="0 0 137 76" fill="none" xmlns="http://www.w3.org/2000/svg">
<path d="M88.6145 0.117369C92.1451 -0.06495 92.1451 -0.06495 93.1987 0.334693C93.5867 0.621378 93.8918 0.909198 94.1954 1.23454C94.3935 1.3864 94.5968 1.5356 94.8058 1.6814C94.9029 1.75283 95 1.82426 95.1001 1.89785C95.5967 2.25986 96.1022 2.61674 96.6063 2.97444C96.929 3.20489 97.2473 3.43727 97.5635 3.67136C98.2152 4.1517 98.8925 4.61672 99.5714 5.08126C100.273 5.564 100.273 5.564 100.531 5.83227C100.801 6.06462 100.801 6.06462 101.258 6.09225C101.427 6.09174 101.597 6.09124 101.771 6.09072C101.956 6.09231 102.141 6.09389 102.331 6.09552C102.62 6.09487 102.62 6.09487 102.915 6.09421C103.297 6.09336 103.678 6.09443 104.06 6.0977C104.229 6.0972 104.399 6.0967 104.573 6.09618C105.008 6.15007 105.008 6.15007 105.326 6.3519C105.623 6.70572 105.588 6.98407 105.531 7.37895C105.416 7.48955 105.301 7.60015 105.183 7.7141C104.729 7.77127 104.729 7.77127 104.202 7.79091C104.027 7.79825 103.852 7.8056 103.672 7.81317C103.537 7.81734 103.403 7.82152 103.264 7.82582C103.401 7.92029 103.538 8.01476 103.679 8.1121C106.4 9.99272 106.4 9.99272 106.772 10.3678C107.152 10.7154 107.419 10.9224 108.079 11.0237C108.614 11.0478 109.138 11.0513 109.673 11.0447C110.036 11.0445 110.398 11.0452 110.761 11.0468C111 11.0446 111 11.0446 111.244 11.0424C111.636 11.0656 111.636 11.0656 111.984 11.289C112.037 11.5474 112.037 11.5474 112.039 11.8476C112.042 11.9467 112.045 12.0458 112.048 12.1479C112.027 12.2331 112.006 12.3184 111.984 12.4062C111.478 12.6223 111.305 12.6633 110.731 12.6995C110.511 12.7133 110.292 12.7271 110.066 12.7414C110.152 12.7955 110.239 12.8497 110.328 12.9054C110.907 13.2713 111.476 13.6379 112.006 14.0331C112.11 14.1044 112.214 14.1757 112.322 14.2491C112.626 14.4855 112.842 14.7026 113.08 14.9657C113.631 15.5103 114.182 15.9364 115.124 16.2046C116.778 16.3462 118.466 16.1771 120.115 16.0605C121.642 15.9559 123.16 15.9467 124.694 15.9532C124.826 15.9535 124.958 15.9539 125.093 15.9542C133.436 15.9805 133.436 15.9805 136.222 17.5111C136.722 17.8374 136.909 18.0275 137 18.4878C136.409 19.4263 135.003 19.8986 133.617 20.2965C129.185 21.4868 123.949 21.379 119.217 21.5068C118.797 21.5186 118.377 21.5319 117.956 21.5455C117.509 21.5598 117.068 21.5673 116.62 21.5681C115.736 21.5797 115.736 21.5797 114.974 21.8368C114.67 22.055 114.424 22.2786 114.175 22.5236C113.986 22.6958 113.796 22.868 113.607 23.0402C113.513 23.1288 113.419 23.2174 113.321 23.3086C112.849 23.7459 112.345 24.167 111.843 24.5903C111.667 24.7405 111.491 24.8907 111.316 25.0411C111.191 25.1481 111.066 25.2551 110.938 25.3653C111.045 25.3695 111.152 25.3737 111.263 25.378C111.474 25.389 111.474 25.389 111.69 25.4003C111.83 25.4067 111.969 25.4132 112.113 25.4199C112.577 25.4871 112.742 25.5738 113.031 25.8122C113.106 26.0531 113.106 26.0531 113.107 26.3149C113.11 26.4013 113.114 26.4877 113.117 26.5768C113.031 26.8177 113.031 26.8177 112.731 26.9982C112.263 27.18 112.006 27.1919 111.464 27.1855C111.301 27.1845 111.138 27.1834 110.97 27.1823C110.801 27.1795 110.632 27.1767 110.458 27.1738C110.287 27.1722 110.115 27.1707 109.939 27.1692C109.516 27.1652 109.093 27.1597 108.671 27.1528C108.636 27.2248 108.601 27.2968 108.564 27.371C108.218 27.8571 107.728 28.2611 107.232 28.6889C106.462 29.3575 105.718 30.0325 105.008 30.7277C105.168 30.7252 105.327 30.7226 105.492 30.7199C105.699 30.7179 105.907 30.7159 106.12 30.7138C106.326 30.7112 106.533 30.7086 106.745 30.7059C107.275 30.7277 107.275 30.7277 107.624 30.9512C107.705 31.7672 107.705 31.7672 107.275 32.1801C106.772 32.3028 106.35 32.2932 105.82 32.2604C104.2 32.1835 104.2 32.1835 102.75 32.5695C102.123 33.0151 101.669 33.53 101.218 34.0533C100.9 34.4118 100.528 34.7394 100.147 35.0707C100.006 35.1963 99.866 35.322 99.7258 35.4478C98.8596 36.218 97.9866 36.986 97.0908 37.7422C96.8058 37.9859 96.8058 37.9859 96.5749 38.2478C96.2208 38.6151 95.989 38.8424 95.3235 38.9633C94.8042 38.996 94.3028 39.0013 93.7812 38.9948C93.5138 38.9967 93.5138 38.9967 93.2409 38.9987C92.803 39.0013 92.366 38.9999 91.9282 38.9948C92.5288 37.8238 93.1494 36.6596 93.8133 35.5027C94.9231 33.5647 95.978 31.6145 97.0273 29.6628C97.1478 29.4387 97.2686 29.2147 97.3893 28.9906C97.8352 28.1629 98.278 27.3346 98.7155 26.505C98.8341 26.2803 98.9532 26.0556 99.0732 25.8312C99.2194 25.5567 99.3625 25.2816 99.5044 25.0062C99.5432 24.9344 99.582 24.8626 99.622 24.7887C100.075 23.8909 100.247 22.9434 100.474 22.0138C100.291 22.0141 100.109 22.0143 99.9209 22.0146C98.1918 22.0169 96.4627 22.0185 94.7336 22.0196C93.8449 22.0202 92.9563 22.021 92.0676 22.0223C91.2081 22.0235 90.3487 22.0242 89.4893 22.0244C89.1633 22.0246 88.8372 22.025 88.5111 22.0257C83.6529 22.0343 83.6529 22.0343 82.5105 21.7904C82.4464 21.8805 82.4464 21.8805 82.381 21.9724C81.4067 23.149 79.9403 24.2223 78.6657 25.2694C78.0312 25.7931 77.4409 26.3127 76.9317 26.8905C76.8066 27.01 76.8066 27.01 76.6789 27.1319C76.6164 27.1916 76.5539 27.2513 76.4895 27.3129C76.1538 27.5949 75.9036 27.7929 75.3526 27.8784C74.9517 27.8911 74.5661 27.8837 74.1658 27.8663C74.0288 27.8632 73.8917 27.8601 73.7505 27.8569C73.4148 27.8488 73.0793 27.8364 72.744 27.8231C74.9906 23.3724 74.9906 23.3724 76.0576 21.3435C75.9268 21.3461 75.796 21.3487 75.6611 21.3514C74.4655 21.3649 73.3817 21.3044 72.2208 21.1201C72.2208 20.8989 72.2208 20.6777 72.2208 20.4498C73.4318 20.1335 74.6522 19.8389 75.8832 19.5561C74.8103 18.0112 73.6986 16.4798 72.5587 14.9547C72.3327 14.6522 72.1068 14.3497 71.8813 14.047C71.7428 13.8611 71.6041 13.6754 71.465 13.4897C71 12.8657 71 12.8657 71 12.7414C72.1077 12.6267 73.3144 12.5087 74.3335 12.8732C75.2229 13.305 75.9567 13.8388 76.7007 14.3682C76.9297 14.5235 77.1594 14.6784 77.3898 14.8328C78.2938 15.4431 79.1703 16.0659 80.0159 16.7096C80.4118 16.9974 80.8728 17.2287 81.336 17.4697C81.6554 17.6673 81.814 17.8438 81.9873 18.1038C82.2422 18.0733 82.2422 18.0733 82.5023 18.0422C86.2103 17.6146 89.9714 17.4293 93.7214 17.2198C94.0847 17.1995 94.4479 17.1791 94.8111 17.1584C96.7018 17.0514 98.574 16.9488 100.474 16.9866C99.3893 14.9864 98.061 13.0772 96.6675 11.1599C96.2456 10.5791 95.8296 9.99669 95.4175 9.41298C93.9499 7.33603 92.4243 5.2799 90.8596 3.23227C90.3345 2.5448 89.8157 1.85547 89.3012 1.16471C89.1935 1.02077 89.1935 1.02077 89.0837 0.873911C88.6145 0.24261 88.6145 0.24261 88.6145 0.117369Z" fill="#9DD74F"/>
<path d="M70.2707 18.3257C70.7883 19.0896 70.7883 19.0896 70.7883 19.3885C70.6329 19.4097 70.4774 19.4309 70.3173 19.4528C54.3631 21.652 38.3467 25.3848 21.9685 35.9949C21.1059 36.6591 21.1059 36.6591 20.7757 36.8994C19.6069 37.7661 18.6289 38.7188 17.6558 39.7147C17.5817 39.7896 17.5076 39.8644 17.4312 39.9415C15.0214 42.3867 13.1064 45.2301 12.1355 48.2172C12.0842 48.3684 12.0328 48.5196 11.9799 48.6754C11.2107 51.3751 11.2286 54.6065 12.308 57.251C12.345 57.3426 12.382 57.4341 12.4201 57.5284C14.9299 63.5324 21.5058 67.4718 28.5258 70.2756C37.1363 73.609 46.6998 74.9581 56.2652 75.1278C56.5708 75.1335 56.8764 75.1393 57.182 75.1452C57.9223 75.1592 58.6625 75.1727 59.4027 75.1859C59.4027 75.2298 59.4027 75.2736 59.4027 75.3188C58.6673 75.3929 57.9316 75.4661 57.1958 75.5385C56.9469 75.5631 56.698 75.588 56.4492 75.6131C53.8985 75.8703 51.3689 76.0081 48.7935 75.9996C48.5866 75.9991 48.3797 75.9985 48.1666 75.998C33.7952 75.93 18.1335 72.9018 7.4778 65.0892C7.34326 64.9942 7.20873 64.8991 7.07012 64.8012C2.95737 61.8027 0.200892 57.1261 0.0114347 52.7746C-0.032259 51.0388 0.0276674 49.3726 0.577477 47.6858C0.606163 47.5954 0.634849 47.5051 0.664405 47.412C2.06656 43.0887 5.34553 39.5008 9.20288 36.2606C9.37275 36.1158 9.54256 35.971 9.71232 35.8262C10.5386 35.1246 11.358 34.4394 12.304 33.8314C12.7179 33.5612 13.1091 33.2751 13.5048 32.9891C14.7629 32.1071 16.1168 31.3269 17.4833 30.548C17.6573 30.4478 17.6573 30.4478 17.8349 30.3455C30.342 23.1778 46.3597 19.9001 70.2707 18.3257Z" fill="#9DD74F"/>
<path d="M71.4847 22.0455C71.3819 22.427 71.3819 22.427 71.1397 22.8426C70.6519 23.0138 70.6519 23.0138 70.0245 23.1156C69.9113 23.1351 69.7981 23.1547 69.6815 23.1748C69.4372 23.2167 69.1925 23.2571 68.9473 23.296C68.2937 23.4004 67.6436 23.5169 66.9928 23.6314C66.7953 23.6657 66.7953 23.6657 66.5938 23.7006C55.7084 25.6009 44.8367 29.4759 35.9481 34.6664C35.8402 34.7293 35.7323 34.7923 35.6211 34.8571C34.9153 35.2716 34.2213 35.6962 33.533 36.1277C33.4398 36.1856 33.3467 36.2434 33.2508 36.303C30.6472 37.9302 28.1315 39.7728 26.1151 41.8403C25.9561 41.996 25.7968 42.1515 25.6373 42.3069C20.9406 46.9378 17.6769 52.6593 18.3899 58.6291C18.6108 59.9983 19.1242 61.2714 19.7323 62.5651C19.8483 62.8305 19.9636 63.0962 20.0773 63.3622C16.6704 60.8549 14.7796 57.2095 14.6659 53.6241C14.6254 51.8564 14.6737 50.1705 15.4196 48.4829C15.4566 48.396 15.4936 48.3091 15.5316 48.2196C17.1295 44.503 19.991 41.1751 23.5275 38.3862C23.6556 38.2849 23.7836 38.1835 23.9156 38.0791C27.1152 35.5567 27.1152 35.5567 28.8752 34.5335C29.0942 34.4012 29.313 34.2687 29.5316 34.136C40.07 27.7795 53.1483 23.8153 66.3203 22.1867C66.5448 22.1585 66.7693 22.1304 67.0006 22.1014C70.5527 21.6866 70.5527 21.6866 71.4847 22.0455Z" fill="#9DD74F"/>
<path d="M36.0982 61.4307C36.0982 61.6455 36.0517 61.7959 35.9586 61.8818C35.8727 61.9606 35.7223 62 35.5074 62H33.2193C33.0045 62 32.8505 61.9606 32.7574 61.8818C32.6715 61.7959 32.6285 61.6455 32.6285 61.4307V49.4746C32.6285 48.7585 32.693 48.1927 32.8219 47.7773C32.9579 47.3548 33.2158 47.054 33.5953 46.875C33.982 46.6888 34.5442 46.5957 35.2818 46.5957H38.1285C41.8668 46.5957 43.7359 48.0316 43.7359 50.9033C43.7359 51.777 43.5891 52.4932 43.2955 53.0518C43.0019 53.6104 42.6367 54.0472 42.1998 54.3623C41.763 54.6702 41.3333 54.903 40.9107 55.0605V55.1143C41.3906 55.4294 41.8453 55.8447 42.275 56.3604C42.7119 56.8688 43.1057 57.4238 43.4566 58.0254C43.8076 58.6198 44.1048 59.2106 44.3482 59.7979C44.5917 60.3779 44.76 60.8971 44.8531 61.3555C44.8961 61.5703 44.8961 61.7314 44.8531 61.8389C44.8173 61.9463 44.6956 62 44.4879 62H42.0064C41.8202 62 41.6555 61.9606 41.5123 61.8818C41.3762 61.8031 41.2509 61.6204 41.1363 61.334C40.5921 59.9661 39.9654 58.8525 39.2564 57.9932C38.5475 57.1266 37.8635 56.432 37.2047 55.9092C36.7822 55.5726 36.5709 55.3327 36.5709 55.1895C36.5709 55.0749 36.6389 54.9173 36.775 54.7168C36.8609 54.5951 36.9863 54.4482 37.151 54.2764C37.3157 54.1045 37.4589 53.9756 37.5807 53.8896C37.7024 53.8037 37.7991 53.75 37.8707 53.7285C37.9495 53.707 38.0676 53.6963 38.2252 53.6963C38.7551 53.6963 39.1956 53.5137 39.5465 53.1484C39.9046 52.7832 40.0836 52.2067 40.0836 51.4189C40.0836 50.6742 39.8938 50.1299 39.5143 49.7861C39.1419 49.4352 38.6262 49.2598 37.9674 49.2598H37.3229C36.8502 49.2598 36.5279 49.36 36.3561 49.5605C36.1842 49.7611 36.0982 50.1048 36.0982 50.5918V61.4307ZM49.2334 62C48.4958 62 47.9336 61.9069 47.5469 61.7207C47.1673 61.5345 46.9095 61.2301 46.7734 60.8076C46.6445 60.3851 46.5801 59.8229 46.5801 59.1211V49.4746C46.5801 48.7585 46.6445 48.1927 46.7734 47.7773C46.9095 47.3548 47.1673 47.054 47.5469 46.875C47.9336 46.6888 48.4958 46.5957 49.2334 46.5957H54.2822C54.4541 46.5957 54.583 46.6243 54.6689 46.6816C54.8551 46.8105 55.0485 46.9645 55.249 47.1436C55.4495 47.3226 55.6608 47.5374 55.8828 47.7881C55.9544 47.8812 55.9902 47.9564 55.9902 48.0137C55.9902 48.0781 55.9544 48.1497 55.8828 48.2285C55.6608 48.4792 55.4495 48.694 55.249 48.873C55.0485 49.0521 54.8551 49.2061 54.6689 49.335C54.5687 49.3923 54.4398 49.4209 54.2822 49.4209H51.2744C50.8018 49.4209 50.4795 49.5212 50.3076 49.7217C50.1357 49.9222 50.0498 50.266 50.0498 50.7529V52.8369H53.9063C54.0781 52.8369 54.207 52.8656 54.293 52.9229C54.4792 53.0518 54.6725 53.2057 54.873 53.3848C55.0736 53.5638 55.2848 53.7786 55.5068 54.0293C55.5785 54.1224 55.6143 54.1976 55.6143 54.2549C55.6143 54.3193 55.5785 54.391 55.5068 54.4697C55.2848 54.7204 55.0736 54.9352 54.873 55.1143C54.6725 55.2933 54.4792 55.4473 54.293 55.5762C54.1927 55.6335 54.0638 55.6621 53.9063 55.6621H50.0498V57.832C50.0498 58.3118 50.1357 58.6556 50.3076 58.8633C50.4795 59.071 50.8018 59.1748 51.2744 59.1748H54.6367C54.8086 59.1748 54.9375 59.2035 55.0234 59.2607C55.2096 59.3896 55.403 59.5436 55.6035 59.7227C55.804 59.9017 56.0153 60.1165 56.2373 60.3672C56.3089 60.4603 56.3447 60.5355 56.3447 60.5928C56.3447 60.6572 56.3089 60.7288 56.2373 60.8076C56.0153 61.0583 55.804 61.2731 55.6035 61.4521C55.403 61.6312 55.2096 61.7852 55.0234 61.9141C54.9232 61.9714 54.7943 62 54.6367 62H49.2334ZM70.5863 60.9473C70.4145 61.069 70.1065 61.2373 69.6625 61.4521C69.2257 61.6598 68.6205 61.846 67.8471 62.0107C67.0736 62.1755 66.1033 62.2578 64.9359 62.2578C63.3676 62.2578 62.0141 62 60.8754 61.4844C59.7439 60.9616 58.8738 60.1201 58.265 58.96C57.6563 57.7926 57.352 56.2493 57.352 54.3301C57.352 51.7734 58.0072 49.804 59.3178 48.4219C60.6283 47.0326 62.4545 46.3379 64.7963 46.3379C65.9135 46.3379 66.8051 46.4453 67.4711 46.6602C68.1371 46.875 68.642 47.1257 68.9857 47.4121C69.3295 47.6986 69.5694 47.9492 69.7055 48.1641C69.7556 48.2428 69.7914 48.3145 69.8129 48.3789C69.8344 48.4362 69.8487 48.5293 69.8559 48.6582C69.8773 48.8301 69.8809 49.0807 69.8666 49.4102C69.8594 49.7396 69.8344 50.0296 69.7914 50.2803C69.7628 50.4378 69.7162 50.5417 69.6518 50.5918C69.6231 50.6204 69.573 50.6455 69.5014 50.667C69.4298 50.6885 69.3223 50.6992 69.1791 50.6992C68.9499 50.6992 68.6814 50.6921 68.3734 50.6777C68.0727 50.6562 67.8507 50.6348 67.7074 50.6133C67.5355 50.5846 67.4102 50.5452 67.3314 50.4951C67.2598 50.4378 67.1811 50.3519 67.0951 50.2373C67.0092 50.1227 66.891 49.9902 66.7406 49.8398C66.5902 49.6823 66.3611 49.5426 66.0531 49.4209C65.7523 49.2992 65.3334 49.2383 64.7963 49.2383C63.6147 49.2383 62.6872 49.668 62.0141 50.5273C61.3409 51.3796 61.0043 52.6077 61.0043 54.2119C61.0043 55.8949 61.3516 57.1732 62.0463 58.0469C62.7481 58.9206 63.7543 59.3574 65.0648 59.3574C65.7237 59.3574 66.2071 59.3109 66.515 59.2178C66.8301 59.1175 67.0307 59.0423 67.1166 58.9922V55.6514C67.1166 55.4437 67.1524 55.2861 67.224 55.1787C67.5463 54.7061 67.9975 54.2083 68.5775 53.6855C68.685 53.5996 68.7781 53.5566 68.8568 53.5566C68.9428 53.5566 69.0323 53.5996 69.1254 53.6855C69.4405 53.9577 69.7055 54.2191 69.9203 54.4697C70.1352 54.7132 70.3214 54.9495 70.4789 55.1787C70.5505 55.2933 70.5863 55.4508 70.5863 55.6514V60.9473ZM76.5564 61.4307C76.5564 61.6455 76.5099 61.7959 76.4168 61.8818C76.3309 61.9606 76.1805 62 75.9656 62H73.6775C73.4627 62 73.3087 61.9606 73.2156 61.8818C73.1297 61.7959 73.0867 61.6455 73.0867 61.4307V48.3145C73.0867 48.1068 73.1225 47.9492 73.1941 47.8418C73.5164 47.3691 73.9676 46.8714 74.5477 46.3486C74.6551 46.2627 74.7482 46.2197 74.827 46.2197C74.9129 46.2197 75.0024 46.2627 75.0955 46.3486C75.4106 46.6208 75.6756 46.8822 75.8904 47.1328C76.1053 47.3763 76.2915 47.6126 76.449 47.8418C76.5206 47.9564 76.5564 48.1139 76.5564 48.3145V61.4307ZM83.7727 62.2578C82.8632 62.2578 82.1076 62.1755 81.5061 62.0107C80.9117 61.846 80.4318 61.6419 80.0666 61.3984C79.7085 61.1478 79.4328 60.9007 79.2395 60.6572C79.175 60.5641 79.1177 60.4746 79.0676 60.3887C79.0175 60.3027 78.9816 60.2061 78.9602 60.0986C78.9315 59.9554 78.9029 59.7692 78.8742 59.54C78.8456 59.3037 78.842 59.0316 78.8635 58.7236C78.8706 58.5947 78.8957 58.5052 78.9387 58.4551C78.9888 58.3978 79.0712 58.3548 79.1857 58.3262C79.3934 58.276 79.662 58.2331 79.9914 58.1973C80.328 58.1543 80.5679 58.1328 80.7111 58.1328C80.8615 58.1328 80.9833 58.1615 81.0764 58.2188C81.1695 58.276 81.2805 58.3727 81.4094 58.5088C81.5526 58.6592 81.7997 58.8525 82.1506 59.0889C82.5015 59.318 83.0422 59.4326 83.7727 59.4326C84.4745 59.4326 85.0044 59.2858 85.3625 58.9922C85.7206 58.6986 85.8996 58.2904 85.8996 57.7676C85.8996 57.4883 85.8137 57.2269 85.6418 56.9834C85.4771 56.7327 85.1727 56.4857 84.7287 56.2422C84.2847 55.9915 83.6509 55.7301 82.8273 55.458C81.4667 54.9997 80.4855 54.4303 79.884 53.75C79.2824 53.0697 78.9816 52.1243 78.9816 50.9141C78.9816 49.9115 79.2251 49.0736 79.7121 48.4004C80.1991 47.7272 80.8723 47.2188 81.7316 46.875C82.591 46.5312 83.5829 46.3594 84.7072 46.3594C85.5738 46.3594 86.2899 46.4632 86.8557 46.6709C87.4286 46.8714 87.8726 47.1006 88.1877 47.3584C88.5028 47.609 88.7069 47.8132 88.8 47.9707C88.8573 48.0638 88.8931 48.1354 88.9074 48.1855C88.9289 48.2285 88.9432 48.2894 88.9504 48.3682C88.9719 48.5902 88.979 48.8372 88.9719 49.1094C88.9647 49.3815 88.9397 49.6895 88.8967 50.0332C88.8752 50.1478 88.8358 50.2266 88.7785 50.2695C88.7284 50.3053 88.6496 50.3232 88.5422 50.3232C87.8475 50.3376 87.3104 50.3018 86.9309 50.2158C86.7805 50.18 86.6802 50.1442 86.6301 50.1084C86.58 50.0726 86.5155 50.0153 86.4367 49.9365C86.3221 49.8005 86.1395 49.6429 85.8889 49.4639C85.6454 49.2777 85.2515 49.1846 84.7072 49.1846C83.9553 49.1846 83.4217 49.3564 83.1066 49.7002C82.7915 50.0368 82.634 50.4163 82.634 50.8389C82.634 51.3402 82.8667 51.734 83.3322 52.0205C83.7977 52.2998 84.5318 52.6185 85.5344 52.9766C86.3723 53.2702 87.092 53.5889 87.6936 53.9326C88.2951 54.2764 88.7535 54.7168 89.0686 55.2539C89.3908 55.791 89.552 56.5 89.552 57.3809C89.552 58.4766 89.2977 59.3861 88.7893 60.1094C88.288 60.8327 87.6005 61.3734 86.7268 61.7314C85.8602 62.0824 84.8755 62.2578 83.7727 62.2578ZM98.3902 61.4307C98.3902 61.6455 98.3437 61.7959 98.2506 61.8818C98.1646 61.9606 98.0143 62 97.7994 62H95.5113C95.2965 62 95.1425 61.9606 95.0494 61.8818C94.9635 61.7959 94.9205 61.6455 94.9205 61.4307V49.4209H91.7193C91.5475 49.4209 91.4186 49.3923 91.3326 49.335C91.1464 49.2061 90.9531 49.0521 90.7525 48.873C90.5592 48.694 90.3479 48.4792 90.1188 48.2285C90.0471 48.1354 90.0113 48.0602 90.0113 48.0029C90.0113 47.9385 90.0471 47.8669 90.1188 47.7881C90.3479 47.5374 90.5592 47.3226 90.7525 47.1436C90.9531 46.9645 91.1464 46.8105 91.3326 46.6816C91.4329 46.6243 91.5618 46.5957 91.7193 46.5957H101.602C101.774 46.5957 101.903 46.6243 101.989 46.6816C102.175 46.8105 102.368 46.9645 102.569 47.1436C102.769 47.3226 102.981 47.5374 103.203 47.7881C103.274 47.8812 103.31 47.9564 103.31 48.0137C103.31 48.0781 103.274 48.1497 103.203 48.2285C102.981 48.4792 102.769 48.694 102.569 48.873C102.368 49.0521 102.175 49.2061 101.989 49.335C101.889 49.3923 101.76 49.4209 101.602 49.4209H98.3902V61.4307ZM110.698 62.2686C109.209 62.2686 107.912 61.9821 106.81 61.4092C105.707 60.8363 104.851 59.9733 104.242 58.8203C103.641 57.6673 103.34 56.2279 103.34 54.502C103.34 51.7591 104.009 49.7145 105.349 48.3682C106.688 47.0146 108.553 46.3379 110.945 46.3379C113.187 46.3379 114.959 47.0003 116.263 48.3252C117.566 49.6429 118.218 51.598 118.218 54.1904C118.218 56.0238 117.913 57.5384 117.305 58.7344C116.696 59.9232 115.829 60.8112 114.705 61.3984C113.581 61.9785 112.245 62.2686 110.698 62.2686ZM110.763 59.3682C112.052 59.3682 113.008 58.9062 113.631 57.9824C114.254 57.0586 114.565 55.859 114.565 54.3838C114.565 52.6722 114.272 51.3867 113.685 50.5273C113.097 49.668 112.152 49.2383 110.849 49.2383C108.278 49.2383 106.992 50.932 106.992 54.3193C106.992 55.8304 107.3 57.0514 107.916 57.9824C108.539 58.9062 109.488 59.3682 110.763 59.3682ZM123.79 61.4307C123.79 61.6455 123.747 61.7959 123.662 61.8818C123.583 61.9606 123.44 62 123.232 62H121.073C120.872 62 120.729 61.9606 120.643 61.8818C120.557 61.7959 120.514 61.6455 120.514 61.4307V47.8203C120.514 47.3978 120.596 47.0898 120.761 46.8965C120.926 46.696 121.216 46.5957 121.631 46.5957H122.63C122.996 46.5957 123.339 46.6458 123.662 46.7461C123.991 46.8392 124.338 47.054 124.704 47.3906C125.076 47.7272 125.506 48.25 125.993 48.959C126.487 49.6608 127.081 50.6204 127.776 51.8379C128.442 52.998 128.975 53.9255 129.376 54.6201C129.785 55.3148 130.1 55.8447 130.322 56.21C130.544 56.5752 130.708 56.8366 130.816 56.9941C130.93 57.1517 131.024 57.2806 131.095 57.3809V48.3145C131.095 48.1068 131.127 47.9492 131.192 47.8418C131.5 47.3691 131.926 46.8714 132.47 46.3486C132.578 46.2627 132.667 46.2197 132.739 46.2197C132.817 46.2197 132.903 46.2627 132.996 46.3486C133.29 46.6208 133.537 46.8822 133.738 47.1328C133.945 47.3763 134.124 47.6126 134.275 47.8418C134.339 47.9564 134.371 48.1139 134.371 48.3145V61.1084C134.371 61.4307 134.311 61.6598 134.189 61.7959C134.067 61.932 133.845 62 133.523 62H132.492C132.184 62 131.869 61.9499 131.546 61.8496C131.224 61.7422 130.859 61.5059 130.451 61.1406C130.042 60.7682 129.559 60.1917 129 59.4111C128.442 58.6305 127.769 57.5635 126.981 56.21C126.315 55.057 125.781 54.1403 125.38 53.46C124.986 52.7796 124.686 52.2676 124.478 51.9238C124.27 51.5729 124.12 51.3294 124.027 51.1934C123.934 51.0501 123.855 50.9427 123.79 50.8711V61.4307Z" fill="white"/>
</svg>
