<svg width="439" height="195" viewBox="0 0 439 195" fill="none" xmlns="http://www.w3.org/2000/svg">
<path fill-rule="evenodd" clip-rule="evenodd" d="M158.067 79.034C158.067 97.658 151.625 114.778 140.848 128.287H140.886L87.937 194.473L87.21 168.52C94.345 165.712 108.723 155.562 109.151 137.42C109.579 119.278 109.329 90.553 109.151 78.459C108.616 76.515 106.044 74.582 103.264 74.747C101.523 74.85 98.448 75.219 97.378 78.459V127.701C97.199 129.429 95.879 132.884 92.026 132.884C87.21 132.884 85.605 131.588 85.605 127.701V79.755C85.605 77.163 81.922 74.909 79.183 74.889C77.282 74.876 74.367 75.867 73.297 79.755V127.701C73.297 129.429 72.119 132.884 67.41 132.884C61.523 132.884 61.523 129.645 61.523 127.701V79.755C61.523 77.595 60.239 73.405 55.102 73.923C53.318 73.923 49.536 74.83 48.68 78.459V137.42C48.859 145.411 53.603 162.818 71.156 168.52L70.419 194.834L17.181 128.287H17.22C6.442 114.778 0 97.658 0 79.034C0 35.385 35.385 0 79.034 0C122.683 0 158.067 35.385 158.067 79.034Z" fill="#9DD74F"/>
<path d="M91.5467 68.5874C91.3427 59.3584 96.5627 40.9014 119.072 40.9014C119.684 50.3354 115.035 69.0794 91.5467 68.5874Z" fill="#16833E"/>
<path d="M79.3139 53.2056C85.8379 45.2076 94.9729 25.8886 79.3139 12.5996C72.7899 18.7516 63.6549 35.4866 79.3139 53.2056Z" fill="#16833E"/>
<path d="M67.6923 68.5874C67.2853 59.3584 60.9643 40.9014 38.9443 40.9014C39.7603 50.9504 46.6513 70.5564 67.6923 68.5874Z" fill="#16833E"/>
<path d="M217.255 45.7612H196.349V57.0112H215.599C217.015 57.0112 218.067 57.3343 218.755 57.9803C219.463 58.6053 219.817 59.4383 219.817 60.4803C219.817 61.5213 219.474 62.3752 218.786 63.0422C218.099 63.6882 217.036 64.0112 215.599 64.0112H196.349V77.0423H217.974C219.432 77.0423 220.526 77.3863 221.255 78.0733C222.005 78.7403 222.38 79.6363 222.38 80.7613C222.38 81.8443 222.005 82.7303 221.255 83.4173C220.526 84.0843 219.432 84.4173 217.974 84.4173H192.755C190.734 84.4173 189.276 83.9693 188.38 83.0733C187.505 82.1773 187.067 80.7303 187.067 78.7303V44.2922C187.067 42.9592 187.265 41.8752 187.661 41.0422C188.057 40.1882 188.672 39.5732 189.505 39.1982C190.359 38.8022 191.442 38.6053 192.755 38.6053H217.255C218.734 38.6053 219.828 38.9383 220.536 39.6053C221.265 40.2503 221.63 41.1052 221.63 42.1672C221.63 43.2502 221.265 44.1252 220.536 44.7922C219.828 45.4382 218.734 45.7612 217.255 45.7612ZM229.161 80.0113V43.0112C229.161 41.3022 229.536 40.0112 230.286 39.1362C231.057 38.2612 232.088 37.8232 233.38 37.8232C234.672 37.8232 235.713 38.2612 236.505 39.1362C237.297 39.9902 237.692 41.2822 237.692 43.0112V80.0113C237.692 81.7403 237.286 83.0423 236.474 83.9173C235.682 84.7713 234.651 85.1983 233.38 85.1983C232.13 85.1983 231.109 84.7503 230.317 83.8553C229.547 82.9593 229.161 81.6773 229.161 80.0113ZM270.349 69.9483H253.661C253.682 71.8863 254.067 73.5943 254.817 75.0733C255.588 76.5523 256.599 77.6673 257.849 78.4173C259.119 79.1673 260.515 79.5423 262.036 79.5423C263.057 79.5423 263.984 79.4273 264.817 79.1983C265.672 78.9483 266.494 78.5733 267.286 78.0733C268.078 77.5523 268.807 77.0003 269.474 76.4173C270.14 75.8343 271.005 75.0423 272.067 74.0423C272.505 73.6673 273.13 73.4803 273.942 73.4803C274.817 73.4803 275.526 73.7193 276.067 74.1983C276.609 74.6773 276.88 75.3553 276.88 76.2303C276.88 77.0003 276.578 77.9073 275.974 78.9483C275.369 79.9693 274.453 80.9593 273.224 81.9173C272.015 82.8553 270.484 83.6363 268.63 84.2613C266.797 84.8863 264.682 85.1983 262.286 85.1983C256.807 85.1983 252.547 83.6363 249.505 80.5113C246.463 77.3863 244.942 73.1462 244.942 67.7922C244.942 65.2712 245.317 62.9382 246.067 60.7922C246.817 58.6252 247.911 56.7713 249.349 55.2303C250.786 53.6883 252.557 52.5112 254.661 51.6982C256.765 50.8652 259.099 50.4482 261.661 50.4482C264.994 50.4482 267.849 51.1572 270.224 52.5732C272.619 53.9692 274.411 55.7822 275.599 58.0112C276.786 60.2402 277.38 62.5112 277.38 64.8232C277.38 66.9692 276.765 68.3652 275.536 69.0112C274.307 69.6362 272.578 69.9483 270.349 69.9483ZM253.661 65.1053H269.13C268.922 62.1883 268.13 60.0112 266.755 58.5732C265.401 57.1152 263.609 56.3862 261.38 56.3862C259.255 56.3862 257.505 57.1253 256.13 58.6053C254.776 60.0633 253.953 62.2303 253.661 65.1053ZM305.849 81.2923L298.317 68.9172L293.692 73.2923V80.0733C293.692 81.7193 293.255 82.9903 292.38 83.8863C291.526 84.7613 290.536 85.1983 289.411 85.1983C288.099 85.1983 287.067 84.7613 286.317 83.8863C285.567 83.0113 285.192 81.7193 285.192 80.0113V43.6362C285.192 41.7402 285.557 40.3022 286.286 39.3232C287.015 38.3232 288.057 37.8232 289.411 37.8232C290.724 37.8232 291.765 38.2712 292.536 39.1672C293.307 40.0632 293.692 41.3862 293.692 43.1362V63.8232L303.286 53.7612C304.474 52.5112 305.38 51.6572 306.005 51.1982C306.63 50.7402 307.39 50.5112 308.286 50.5112C309.349 50.5112 310.234 50.8552 310.942 51.5422C311.651 52.2092 312.005 53.0522 312.005 54.0732C312.005 55.3232 310.849 56.9902 308.536 59.0732L304.005 63.2303L312.755 76.9803C313.401 78.0003 313.859 78.7823 314.13 79.3233C314.422 79.8443 314.567 80.3443 314.567 80.8233C314.567 82.1773 314.192 83.2503 313.442 84.0423C312.713 84.8133 311.744 85.1983 310.536 85.1983C309.494 85.1983 308.692 84.9173 308.13 84.3553C307.567 83.7923 306.807 82.7713 305.849 81.2923ZM321.755 51.2612H322.692V46.1362C322.692 44.7612 322.724 43.6882 322.786 42.9172C322.869 42.1252 323.078 41.4482 323.411 40.8862C323.744 40.3022 324.224 39.8343 324.849 39.4803C325.474 39.1053 326.172 38.9172 326.942 38.9172C328.026 38.9172 329.005 39.3232 329.88 40.1362C330.463 40.6772 330.828 41.3442 330.974 42.1362C331.14 42.9072 331.224 44.0112 331.224 45.4482V51.2612H334.349C335.557 51.2612 336.474 51.5522 337.099 52.1362C337.744 52.6982 338.067 53.4272 338.067 54.3232C338.067 55.4692 337.609 56.2713 336.692 56.7303C335.797 57.1883 334.505 57.4172 332.817 57.4172H331.224V73.1053C331.224 74.4383 331.265 75.4693 331.349 76.1983C331.453 76.9073 331.703 77.4903 332.099 77.9483C332.515 78.3863 333.182 78.6053 334.099 78.6053C334.599 78.6053 335.276 78.5213 336.13 78.3553C336.984 78.1673 337.651 78.0733 338.13 78.0733C338.817 78.0733 339.432 78.3553 339.974 78.9173C340.536 79.4593 340.817 80.1363 340.817 80.9483C340.817 82.3233 340.067 83.3753 338.567 84.1053C337.067 84.8343 334.911 85.1983 332.099 85.1983C329.432 85.1983 327.411 84.7503 326.036 83.8553C324.661 82.9593 323.755 81.7193 323.317 80.1363C322.901 78.5523 322.692 76.4383 322.692 73.7923V57.4172H321.567C320.338 57.4172 319.401 57.1252 318.755 56.5422C318.109 55.9592 317.786 55.2192 317.786 54.3232C317.786 53.4272 318.119 52.6982 318.786 52.1362C319.474 51.5522 320.463 51.2612 321.755 51.2612ZM352.442 72.8863V80.0113C352.442 81.7403 352.036 83.0423 351.224 83.9173C350.411 84.7713 349.38 85.1983 348.13 85.1983C346.901 85.1983 345.89 84.7613 345.099 83.8863C344.307 83.0113 343.911 81.7193 343.911 80.0113V56.2612C343.911 52.4272 345.297 50.5112 348.067 50.5112C349.484 50.5112 350.505 50.9593 351.13 51.8553C351.755 52.7503 352.099 54.0732 352.161 55.8232C353.182 54.0732 354.224 52.7503 355.286 51.8553C356.369 50.9593 357.807 50.5112 359.599 50.5112C361.39 50.5112 363.13 50.9593 364.817 51.8553C366.505 52.7503 367.349 53.9382 367.349 55.4172C367.349 56.4592 366.984 57.3232 366.255 58.0112C365.547 58.6772 364.776 59.0112 363.942 59.0112C363.63 59.0112 362.869 58.8232 361.661 58.4482C360.474 58.0522 359.422 57.8553 358.505 57.8553C357.255 57.8553 356.234 58.1883 355.442 58.8553C354.651 59.5003 354.036 60.4692 353.599 61.7612C353.161 63.0522 352.859 64.5942 352.692 66.3862C352.526 68.1572 352.442 70.3233 352.442 72.8863ZM401.536 67.8553C401.536 70.3963 401.14 72.7403 400.349 74.8863C399.557 77.0323 398.411 78.8753 396.911 80.4173C395.411 81.9593 393.619 83.1463 391.536 83.9803C389.453 84.7923 387.109 85.1983 384.505 85.1983C381.922 85.1983 379.599 84.7823 377.536 83.9483C375.474 83.1153 373.682 81.9273 372.161 80.3863C370.661 78.8233 369.515 76.9903 368.724 74.8863C367.953 72.7613 367.567 70.4173 367.567 67.8553C367.567 65.2713 367.963 62.9072 368.755 60.7612C369.547 58.6152 370.682 56.7822 372.161 55.2612C373.64 53.7402 375.432 52.5732 377.536 51.7612C379.64 50.9272 381.963 50.5112 384.505 50.5112C387.088 50.5112 389.432 50.9272 391.536 51.7612C393.64 52.5942 395.442 53.7822 396.942 55.3232C398.442 56.8652 399.578 58.6982 400.349 60.8232C401.14 62.9482 401.536 65.2923 401.536 67.8553ZM392.974 67.8553C392.974 64.3753 392.203 61.6673 390.661 59.7303C389.14 57.7923 387.088 56.8232 384.505 56.8232C382.838 56.8232 381.369 57.2612 380.099 58.1362C378.828 58.9902 377.849 60.2612 377.161 61.9482C376.474 63.6362 376.13 65.6053 376.13 67.8553C376.13 70.0843 376.463 72.0323 377.13 73.6983C377.817 75.3653 378.786 76.6463 380.036 77.5423C381.307 78.4173 382.797 78.8553 384.505 78.8553C387.088 78.8553 389.14 77.8863 390.661 75.9483C392.203 73.9903 392.974 71.2923 392.974 67.8553ZM416.036 55.2303V56.2612C417.536 54.2822 419.172 52.8342 420.942 51.9172C422.734 50.9802 424.786 50.5112 427.099 50.5112C429.349 50.5112 431.359 51.0003 433.13 51.9803C434.901 52.9593 436.224 54.3442 437.099 56.1362C437.661 57.1772 438.026 58.3022 438.192 59.5112C438.359 60.7192 438.442 62.2612 438.442 64.1362V80.0113C438.442 81.7193 438.047 83.0113 437.255 83.8863C436.484 84.7613 435.474 85.1983 434.224 85.1983C432.953 85.1983 431.922 84.7503 431.13 83.8553C430.338 82.9593 429.942 81.6773 429.942 80.0113V65.7922C429.942 62.9802 429.547 60.8343 428.755 59.3553C427.984 57.8553 426.432 57.1053 424.099 57.1053C422.578 57.1053 421.192 57.5633 419.942 58.4803C418.692 59.3753 417.776 60.6152 417.192 62.1982C416.776 63.4692 416.567 65.8443 416.567 69.3233V80.0113C416.567 81.7403 416.161 83.0423 415.349 83.9173C414.557 84.7713 413.526 85.1983 412.255 85.1983C411.026 85.1983 410.015 84.7503 409.224 83.8553C408.432 82.9593 408.036 81.6773 408.036 80.0113V55.3553C408.036 53.7303 408.39 52.5213 409.099 51.7303C409.807 50.9173 410.776 50.5112 412.005 50.5112C412.755 50.5112 413.432 50.6882 414.036 51.0422C414.64 51.3962 415.119 51.9272 415.474 52.6362C415.849 53.3442 416.036 54.2093 416.036 55.2303ZM202.536 151.511L195.192 122.323V153.948C195.192 155.698 194.797 157.011 194.005 157.886C193.234 158.761 192.203 159.198 190.911 159.198C189.661 159.198 188.64 158.771 187.849 157.917C187.057 157.042 186.661 155.719 186.661 153.948V117.698C186.661 115.698 187.182 114.355 188.224 113.667C189.265 112.959 190.672 112.605 192.442 112.605H195.317C197.047 112.605 198.297 112.761 199.067 113.073C199.859 113.386 200.442 113.948 200.817 114.761C201.192 115.573 201.619 116.896 202.099 118.73L208.755 143.823L215.411 118.73C215.89 116.896 216.317 115.573 216.692 114.761C217.067 113.948 217.64 113.386 218.411 113.073C219.203 112.761 220.463 112.605 222.192 112.605H225.067C226.838 112.605 228.244 112.959 229.286 113.667C230.328 114.355 230.849 115.698 230.849 117.698V153.948C230.849 155.698 230.453 157.011 229.661 157.886C228.89 158.761 227.849 159.198 226.536 159.198C225.307 159.198 224.297 158.761 223.505 157.886C222.713 157.011 222.317 155.698 222.317 153.948V122.323L214.974 151.511C214.494 153.407 214.099 154.802 213.786 155.698C213.494 156.573 212.942 157.375 212.13 158.105C211.317 158.834 210.192 159.198 208.755 159.198C207.672 159.198 206.755 158.959 206.005 158.48C205.255 158.021 204.672 157.427 204.255 156.698C203.838 155.969 203.505 155.167 203.255 154.292C203.026 153.396 202.786 152.469 202.536 151.511ZM263.599 143.948H246.911C246.932 145.886 247.317 147.594 248.067 149.073C248.838 150.552 249.849 151.667 251.099 152.417C252.369 153.167 253.765 153.542 255.286 153.542C256.307 153.542 257.234 153.427 258.067 153.198C258.922 152.948 259.744 152.573 260.536 152.073C261.328 151.552 262.057 151 262.724 150.417C263.39 149.834 264.255 149.042 265.317 148.042C265.755 147.667 266.38 147.48 267.192 147.48C268.067 147.48 268.776 147.719 269.317 148.198C269.859 148.677 270.13 149.355 270.13 150.23C270.13 151 269.828 151.907 269.224 152.948C268.619 153.969 267.703 154.959 266.474 155.917C265.265 156.855 263.734 157.636 261.88 158.261C260.047 158.886 257.932 159.198 255.536 159.198C250.057 159.198 245.797 157.636 242.755 154.511C239.713 151.386 238.192 147.146 238.192 141.792C238.192 139.271 238.567 136.938 239.317 134.792C240.067 132.625 241.161 130.771 242.599 129.23C244.036 127.688 245.807 126.511 247.911 125.698C250.015 124.865 252.349 124.448 254.911 124.448C258.244 124.448 261.099 125.157 263.474 126.573C265.869 127.969 267.661 129.782 268.849 132.011C270.036 134.24 270.63 136.511 270.63 138.823C270.63 140.969 270.015 142.365 268.786 143.011C267.557 143.636 265.828 143.948 263.599 143.948ZM246.911 139.105H262.38C262.172 136.188 261.38 134.011 260.005 132.573C258.651 131.115 256.859 130.386 254.63 130.386C252.505 130.386 250.755 131.125 249.38 132.605C248.026 134.063 247.203 136.23 246.911 139.105ZM285.599 129.23V130.261C287.099 128.282 288.734 126.834 290.505 125.917C292.297 124.98 294.349 124.511 296.661 124.511C298.911 124.511 300.922 125 302.692 125.98C304.463 126.959 305.786 128.344 306.661 130.136C307.224 131.177 307.588 132.302 307.755 133.511C307.922 134.719 308.005 136.261 308.005 138.136V154.011C308.005 155.719 307.609 157.011 306.817 157.886C306.047 158.761 305.036 159.198 303.786 159.198C302.515 159.198 301.484 158.75 300.692 157.855C299.901 156.959 299.505 155.677 299.505 154.011V139.792C299.505 136.98 299.109 134.834 298.317 133.355C297.547 131.855 295.994 131.105 293.661 131.105C292.14 131.105 290.755 131.563 289.505 132.48C288.255 133.375 287.338 134.615 286.755 136.198C286.338 137.469 286.13 139.844 286.13 143.323V154.011C286.13 155.74 285.724 157.042 284.911 157.917C284.119 158.771 283.088 159.198 281.817 159.198C280.588 159.198 279.578 158.75 278.786 157.855C277.994 156.959 277.599 155.677 277.599 154.011V129.355C277.599 127.73 277.953 126.521 278.661 125.73C279.369 124.917 280.338 124.511 281.567 124.511C282.317 124.511 282.994 124.688 283.599 125.042C284.203 125.396 284.682 125.927 285.036 126.636C285.411 127.344 285.599 128.209 285.599 129.23ZM337.817 154.386V153.292C336.797 154.584 335.724 155.667 334.599 156.542C333.474 157.417 332.244 158.063 330.911 158.48C329.578 158.917 328.057 159.136 326.349 159.136C324.286 159.136 322.432 158.709 320.786 157.855C319.161 157 317.901 155.823 317.005 154.323C315.942 152.511 315.411 149.907 315.411 146.511V129.605C315.411 127.896 315.797 126.625 316.567 125.792C317.338 124.938 318.359 124.511 319.63 124.511C320.922 124.511 321.963 124.938 322.755 125.792C323.547 126.646 323.942 127.917 323.942 129.605V143.261C323.942 145.24 324.109 146.907 324.442 148.261C324.776 149.594 325.369 150.646 326.224 151.417C327.099 152.167 328.276 152.542 329.755 152.542C331.192 152.542 332.547 152.115 333.817 151.261C335.088 150.407 336.015 149.292 336.599 147.917C337.078 146.709 337.317 144.063 337.317 139.98V129.605C337.317 127.917 337.713 126.646 338.505 125.792C339.297 124.938 340.328 124.511 341.599 124.511C342.869 124.511 343.89 124.938 344.661 125.792C345.432 126.625 345.817 127.896 345.817 129.605V154.323C345.817 155.948 345.442 157.167 344.692 157.98C343.963 158.792 343.015 159.198 341.849 159.198C340.682 159.198 339.713 158.782 338.942 157.948C338.192 157.094 337.817 155.907 337.817 154.386Z" fill="#16833E"/>
</svg>
