<svg width="416" height="401" viewBox="0 0 416 401" fill="none" xmlns="http://www.w3.org/2000/svg">
<path fill-rule="evenodd" clip-rule="evenodd" d="M329.326 124.959C329.326 154.406 319.408 181.474 302.816 202.832H302.875L221.358 307.479L220.239 266.445C231.225 262.006 253.359 245.957 254.018 217.273C254.677 188.589 254.292 143.173 254.018 124.05C253.194 120.977 249.235 117.921 244.955 118.182C242.274 118.345 237.54 118.928 235.893 124.05V201.907C235.618 204.638 233.586 210.102 227.654 210.102C220.239 210.102 217.768 208.053 217.768 201.907V126.099C217.768 122.001 212.098 118.437 207.882 118.407C204.954 118.386 200.467 119.953 198.819 126.099V201.907C198.819 204.638 197.007 210.102 189.757 210.102C180.695 210.102 180.695 204.98 180.695 201.907V126.099C180.695 122.685 178.717 116.06 170.808 116.879C168.062 116.879 162.24 118.313 160.922 124.05V217.273C161.196 229.907 168.501 257.43 195.524 266.445L194.39 308.05L112.428 202.832H112.488C95.8957 181.474 85.9775 154.406 85.9775 124.959C85.9775 55.9463 140.453 0 207.652 0C274.85 0 329.326 55.9463 329.326 124.959Z" fill="#16833E"/>
<path d="M226.916 108.442C226.602 93.8511 234.638 64.668 269.291 64.668C270.233 79.5839 263.076 109.22 226.916 108.442Z" fill="#9DD74F"/>
<path d="M208.084 84.1233C218.128 71.4772 232.191 40.9325 208.084 19.9209C198.04 29.6486 183.977 56.1079 208.084 84.1233Z" fill="#9DD74F"/>
<path d="M190.191 108.442C189.563 93.8511 179.833 64.668 145.933 64.668C147.188 80.5562 157.797 111.555 190.191 108.442Z" fill="#9DD74F"/>
<path d="M28.8521 362.289H8.87025V373.332H27.269C28.6233 373.332 29.6287 373.649 30.2856 374.283C30.9631 374.896 31.3015 375.714 31.3015 376.737C31.3015 377.76 30.9724 378.598 30.3155 379.252C29.6586 379.886 28.6433 380.203 27.269 380.203H8.87025V392.994H29.5389C30.9332 392.994 31.9784 393.332 32.6752 394.006C33.3919 394.661 33.7503 395.541 33.7503 396.645C33.7503 397.708 33.3919 398.577 32.6752 399.252C31.9784 399.906 30.9332 400.234 29.5389 400.234H5.43545C3.50395 400.234 2.11035 399.794 1.25398 398.915C0.41755 398.035 0 396.614 0 394.651V360.848C0 359.539 0.188826 358.476 0.567146 357.658C0.945466 356.819 1.53256 356.216 2.32909 355.848C3.14557 355.459 4.18147 355.265 5.43545 355.265H28.8521C30.2656 355.265 31.3115 355.592 31.9883 356.247C32.6851 356.88 33.0335 357.719 33.0335 358.762C33.0335 359.826 32.6851 360.684 31.9883 361.339C31.3115 361.972 30.2656 362.289 28.8521 362.289ZM40.2316 395.909V359.59C40.2316 357.913 40.59 356.646 41.3067 355.787C42.0441 354.928 43.0294 354.498 44.2641 354.498C45.4982 354.498 46.4942 354.928 47.2508 355.787C48.0074 356.625 48.3858 357.892 48.3858 359.59V395.909C48.3858 397.606 47.9975 398.884 47.2209 399.743C46.4642 400.581 45.4789 401.001 44.2641 401.001C43.0693 401.001 42.0933 400.561 41.3366 399.681C40.5999 398.802 40.2316 397.544 40.2316 395.909ZM79.5975 386.031H63.6482C63.6682 387.933 64.0365 389.61 64.7533 391.062C65.49 392.514 66.456 393.608 67.6508 394.344C68.8649 395.08 70.1993 395.449 71.6528 395.449C72.6288 395.449 73.5145 395.336 74.311 395.111C75.1275 394.865 75.9141 394.497 76.6707 394.006C77.4273 393.496 78.1241 392.953 78.7611 392.381C79.3987 391.808 80.2252 391.031 81.2404 390.05C81.6587 389.681 82.2557 389.498 83.0323 389.498C83.8687 389.498 84.5456 389.732 85.0635 390.203C85.5815 390.673 85.8401 391.338 85.8401 392.197C85.8401 392.953 85.5516 393.843 84.9738 394.865C84.3967 395.868 83.5203 396.839 82.3455 397.78C81.1906 398.699 79.7272 399.467 77.9552 400.08C76.2026 400.693 74.1813 401.001 71.8915 401.001C66.6548 401.001 62.5831 399.467 59.6755 396.399C56.7687 393.332 55.3152 389.17 55.3152 383.915C55.3152 381.44 55.6736 379.15 56.3903 377.044C57.1071 374.917 58.1523 373.097 59.5266 371.584C60.9003 370.07 62.593 368.915 64.6043 368.117C66.6149 367.299 68.845 366.891 71.2944 366.891C74.4805 366.891 77.2086 367.586 79.4785 368.976C81.7684 370.347 83.4804 372.125 84.6154 374.314C85.7504 376.502 86.3182 378.731 86.3182 381.001C86.3182 383.107 85.7304 384.477 84.5556 385.111C83.3807 385.725 81.7285 386.031 79.5975 386.031ZM63.6482 381.277H78.4326C78.2338 378.414 77.4772 376.277 76.1627 374.866C74.8688 373.435 73.1561 372.719 71.0258 372.719C68.9946 372.719 67.3217 373.445 66.0079 374.896C64.7134 376.328 63.9268 378.455 63.6482 381.277ZM113.528 397.166L106.329 385.019L101.909 389.313V395.97C101.909 397.585 101.491 398.833 100.654 399.712C99.838 400.571 98.8925 401.001 97.8174 401.001C96.5628 401.001 95.5774 400.571 94.86 399.712C94.1432 398.853 93.7849 397.585 93.7849 395.909V360.204C93.7849 358.342 94.1332 356.932 94.8301 355.97C95.5275 354.989 96.5229 354.498 97.8174 354.498C99.0714 354.498 100.067 354.938 100.804 355.817C101.541 356.696 101.909 357.995 101.909 359.713V380.019L111.079 370.142C112.214 368.915 113.08 368.076 113.677 367.627C114.275 367.177 115.001 366.952 115.857 366.952C116.873 366.952 117.719 367.289 118.396 367.964C119.073 368.618 119.412 369.447 119.412 370.448C119.412 371.676 118.307 373.312 116.096 375.357L111.765 379.437L120.128 392.933C120.746 393.935 121.184 394.702 121.443 395.233C121.721 395.745 121.861 396.236 121.861 396.706C121.861 398.035 121.503 399.089 120.786 399.866C120.088 400.622 119.163 401.001 118.008 401.001C117.012 401.001 116.245 400.724 115.708 400.172C115.17 399.62 114.444 398.618 113.528 397.166ZM128.731 367.688H129.626V362.657C129.626 361.308 129.656 360.254 129.716 359.498C129.796 358.721 129.995 358.056 130.314 357.504C130.632 356.932 131.09 356.471 131.687 356.124C132.284 355.756 132.952 355.571 133.689 355.571C134.724 355.571 135.66 355.97 136.496 356.768C137.054 357.3 137.402 357.954 137.542 358.731C137.701 359.488 137.78 360.572 137.78 361.983V367.688H140.767C141.922 367.688 142.798 367.975 143.395 368.547C144.013 369.099 144.322 369.815 144.322 370.694C144.322 371.819 143.883 372.606 143.007 373.056C142.151 373.506 140.917 373.731 139.304 373.731H137.78V389.13C137.78 390.439 137.82 391.45 137.9 392.166C138 392.861 138.238 393.434 138.617 393.884C139.015 394.314 139.652 394.528 140.528 394.528C141.006 394.528 141.653 394.446 142.47 394.283C143.286 394.099 143.923 394.006 144.381 394.006C145.038 394.006 145.626 394.283 146.143 394.835C146.681 395.367 146.95 396.031 146.95 396.829C146.95 398.178 146.233 399.211 144.8 399.927C143.365 400.643 141.305 401.001 138.617 401.001C136.068 401.001 134.137 400.561 132.822 399.681C131.508 398.802 130.642 397.585 130.224 396.031C129.826 394.477 129.626 392.402 129.626 389.804V373.731H128.551C127.376 373.731 126.481 373.445 125.863 372.872C125.246 372.3 124.937 371.574 124.937 370.694C124.937 369.815 125.256 369.099 125.893 368.547C126.55 367.975 127.496 367.688 128.731 367.688ZM158.061 388.914V395.909C158.061 397.606 157.672 398.884 156.896 399.743C156.119 400.581 155.134 401.001 153.939 401.001C152.764 401.001 151.798 400.571 151.042 399.712C150.285 398.853 149.907 397.585 149.907 395.909V372.596C149.907 368.834 151.231 366.952 153.879 366.952C155.233 366.952 156.209 367.391 156.806 368.271C157.404 369.15 157.732 370.448 157.792 372.166C158.768 370.448 159.764 369.15 160.779 368.271C161.814 367.391 163.188 366.952 164.9 366.952C166.613 366.952 168.275 367.391 169.888 368.271C171.501 369.15 172.308 370.316 172.308 371.768C172.308 372.79 171.959 373.639 171.263 374.314C170.585 374.968 169.849 375.295 169.052 375.295C168.753 375.295 168.027 375.112 166.872 374.743C165.737 374.355 164.732 374.16 163.855 374.16C162.66 374.16 161.685 374.487 160.928 375.142C160.172 375.776 159.584 376.726 159.166 377.994C158.748 379.262 158.459 380.776 158.299 382.535C158.141 384.272 158.061 386.4 158.061 388.914ZM204.983 383.976C204.983 386.471 204.605 388.772 203.848 390.878C203.091 392.984 201.996 394.794 200.563 396.308C199.129 397.821 197.417 398.986 195.425 399.804C193.435 400.602 191.194 401.001 188.705 401.001C186.236 401.001 184.016 400.592 182.044 399.774C180.073 398.956 178.361 397.79 176.908 396.277C175.474 394.743 174.378 392.943 173.622 390.878C172.885 388.792 172.517 386.492 172.517 383.976C172.517 381.44 172.895 379.119 173.652 377.013C174.408 374.907 175.493 373.107 176.908 371.614C178.321 370.121 180.034 368.976 182.044 368.179C184.056 367.361 186.276 366.952 188.705 366.952C191.174 366.952 193.415 367.361 195.425 368.179C197.437 368.997 199.159 370.162 200.593 371.676C202.026 373.189 203.111 374.989 203.848 377.075C204.605 379.16 204.983 381.461 204.983 383.976ZM196.8 383.976C196.8 380.561 196.063 377.902 194.59 376.001C193.135 374.099 191.174 373.148 188.705 373.148C187.112 373.148 185.709 373.577 184.494 374.436C183.279 375.275 182.344 376.522 181.686 378.179C181.029 379.835 180.701 381.768 180.701 383.976C180.701 386.164 181.019 388.077 181.656 389.712C182.314 391.348 183.239 392.606 184.434 393.485C185.649 394.344 187.072 394.773 188.705 394.773C191.174 394.773 193.135 393.823 194.59 391.921C196.063 389.999 196.8 387.35 196.8 383.976ZM218.842 371.584V372.596C220.275 370.653 221.839 369.232 223.531 368.332C225.243 367.412 227.205 366.952 229.415 366.952C231.566 366.952 233.487 367.432 235.18 368.394C236.872 369.355 238.137 370.715 238.973 372.473C239.511 373.496 239.859 374.6 240.019 375.786C240.178 376.972 240.257 378.485 240.257 380.326V395.909C240.257 397.585 239.879 398.853 239.122 399.712C238.386 400.571 237.42 401.001 236.225 401.001C235.011 401.001 234.025 400.561 233.268 399.681C232.511 398.802 232.133 397.544 232.133 395.909V381.952C232.133 379.191 231.755 377.085 230.998 375.633C230.261 374.16 228.778 373.424 226.548 373.424C225.095 373.424 223.77 373.874 222.575 374.774C221.381 375.653 220.505 376.87 219.947 378.424C219.549 379.672 219.35 382.003 219.35 385.418V395.909C219.35 397.606 218.962 398.884 218.185 399.743C217.428 400.581 216.442 401.001 215.228 401.001C214.053 401.001 213.087 400.561 212.331 399.681C211.574 398.802 211.196 397.544 211.196 395.909V371.706C211.196 370.111 211.534 368.925 212.211 368.148C212.889 367.35 213.814 366.952 214.989 366.952C215.706 366.952 216.353 367.126 216.93 367.473C217.508 367.821 217.966 368.343 218.304 369.038C218.663 369.733 218.842 370.582 218.842 371.584ZM279.056 393.455L272.037 364.805V395.847C272.037 397.565 271.659 398.853 270.902 399.712C270.165 400.571 269.179 401.001 267.945 401.001C266.75 401.001 265.774 400.581 265.018 399.743C264.261 398.884 263.883 397.585 263.883 395.847V360.265C263.883 358.301 264.381 356.983 265.376 356.308C266.372 355.612 267.716 355.265 269.409 355.265H272.157C273.809 355.265 275.004 355.419 275.74 355.725C276.497 356.032 277.055 356.584 277.413 357.382C277.771 358.179 278.18 359.477 278.638 361.277L284.999 385.909L291.361 361.277C291.819 359.477 292.227 358.179 292.586 357.382C292.944 356.584 293.492 356.032 294.229 355.725C294.985 355.419 296.19 355.265 297.842 355.265H300.59C302.283 355.265 303.627 355.612 304.623 356.308C305.618 356.983 306.116 358.301 306.116 360.265V395.847C306.116 397.565 305.738 398.853 304.981 399.712C304.245 400.571 303.249 401.001 301.995 401.001C300.82 401.001 299.854 400.571 299.097 399.712C298.34 398.853 297.962 397.565 297.962 395.847V364.805L290.943 393.455C290.485 395.315 290.107 396.686 289.808 397.565C289.529 398.424 289.002 399.211 288.226 399.927C287.449 400.643 286.373 401.001 284.999 401.001C283.964 401.001 283.088 400.765 282.371 400.295C281.654 399.845 281.097 399.262 280.698 398.547C280.3 397.831 279.982 397.044 279.743 396.185C279.523 395.305 279.295 394.395 279.056 393.455ZM337.418 386.031H321.468C321.488 387.933 321.857 389.61 322.574 391.062C323.31 392.514 324.276 393.608 325.47 394.344C326.685 395.08 328.02 395.449 329.473 395.449C330.448 395.449 331.335 395.336 332.131 395.111C332.948 394.865 333.734 394.497 334.491 394.006C335.248 393.496 335.944 392.953 336.581 392.381C337.218 391.808 338.045 391.031 339.061 390.05C339.479 389.681 340.076 389.498 340.853 389.498C341.689 389.498 342.366 389.732 342.884 390.203C343.401 390.673 343.66 391.338 343.66 392.197C343.66 392.953 343.371 393.843 342.794 394.865C342.216 395.868 341.341 396.839 340.166 397.78C339.011 398.699 337.547 399.467 335.775 400.08C334.023 400.693 332.002 401.001 329.712 401.001C324.475 401.001 320.403 399.467 317.496 396.399C314.589 393.332 313.135 389.17 313.135 383.915C313.135 381.44 313.494 379.15 314.211 377.044C314.927 374.917 315.973 373.097 317.346 371.584C318.721 370.07 320.413 368.915 322.424 368.117C324.435 367.299 326.665 366.891 329.115 366.891C332.3 366.891 335.028 367.586 337.298 368.976C339.588 370.347 341.301 372.125 342.436 374.314C343.571 376.502 344.138 378.731 344.138 381.001C344.138 383.107 343.551 384.477 342.376 385.111C341.201 385.725 339.548 386.031 337.418 386.031ZM321.468 381.277H336.253C336.053 378.414 335.297 376.277 333.983 374.866C332.688 373.435 330.976 372.719 328.845 372.719C326.815 372.719 325.142 373.445 323.827 374.896C322.534 376.328 321.747 378.455 321.468 381.277ZM358.445 371.584V372.596C359.878 370.653 361.441 369.232 363.134 368.332C364.846 367.412 366.808 366.952 369.018 366.952C371.169 366.952 373.09 367.432 374.782 368.394C376.475 369.355 377.739 370.715 378.576 372.473C379.113 373.496 379.462 374.6 379.621 375.786C379.78 376.972 379.86 378.485 379.86 380.326V395.909C379.86 397.585 379.482 398.853 378.725 399.712C377.988 400.571 377.022 401.001 375.828 401.001C374.614 401.001 373.627 400.561 372.871 399.681C372.114 398.802 371.736 397.544 371.736 395.909V381.952C371.736 379.191 371.358 377.085 370.601 375.633C369.864 374.16 368.381 373.424 366.151 373.424C364.697 373.424 363.373 373.874 362.178 374.774C360.983 375.653 360.108 376.87 359.55 378.424C359.152 379.672 358.953 382.003 358.953 385.418V395.909C358.953 397.606 358.564 398.884 357.788 399.743C357.031 400.581 356.045 401.001 354.83 401.001C353.656 401.001 352.69 400.561 351.934 399.681C351.177 398.802 350.799 397.544 350.799 395.909V371.706C350.799 370.111 351.137 368.925 351.814 368.148C352.491 367.35 353.417 366.952 354.592 366.952C355.309 366.952 355.955 367.126 356.533 367.473C357.11 367.821 357.568 368.343 357.907 369.038C358.265 369.733 358.445 370.582 358.445 371.584ZM408.354 396.277V395.203C407.378 396.471 406.353 397.534 405.277 398.393C404.202 399.252 403.027 399.886 401.753 400.295C400.479 400.724 399.025 400.939 397.392 400.939C395.421 400.939 393.649 400.52 392.076 399.681C390.523 398.843 389.318 397.688 388.462 396.215C387.446 394.436 386.939 391.88 386.939 388.546V371.952C386.939 370.275 387.307 369.027 388.044 368.209C388.781 367.371 389.756 366.952 390.971 366.952C392.206 366.952 393.201 367.371 393.958 368.209C394.714 369.048 395.093 370.295 395.093 371.952V385.356C395.093 387.3 395.252 388.935 395.571 390.264C395.889 391.573 396.456 392.606 397.273 393.362C398.109 394.098 399.234 394.467 400.648 394.467C402.022 394.467 403.317 394.047 404.531 393.209C405.745 392.371 406.632 391.276 407.189 389.927C407.647 388.741 407.876 386.143 407.876 382.136V371.952C407.876 370.295 408.255 369.048 409.011 368.209C409.768 367.371 410.753 366.952 411.968 366.952C413.183 366.952 414.158 367.371 414.895 368.209C415.632 369.027 416 370.275 416 371.952V396.215C416 397.81 415.642 399.007 414.925 399.804C414.228 400.602 413.322 401.001 412.207 401.001C411.092 401.001 410.166 400.592 409.43 399.774C408.712 398.935 408.354 397.769 408.354 396.277Z" fill="white"/>
</svg>
