<svg width="1080" height="1080" viewBox="0 0 1080 1080" fill="none" xmlns="http://www.w3.org/2000/svg">
<rect width="1080" height="1080" fill="#16833E"/>
<path fill-rule="evenodd" clip-rule="evenodd" d="M476.067 521.991C476.067 540.615 469.625 557.735 458.848 571.244H458.886L405.937 637.43L405.21 611.477C412.345 608.669 426.723 598.519 427.151 580.377C427.579 562.235 427.329 533.51 427.151 521.416C426.616 519.472 424.044 517.539 421.264 517.704C419.523 517.807 416.448 518.176 415.378 521.416V570.658C415.199 572.386 413.879 575.841 410.026 575.841C405.21 575.841 403.605 574.545 403.605 570.658V522.712C403.605 520.12 399.922 517.866 397.183 517.846C395.282 517.833 392.367 518.824 391.297 522.712V570.658C391.297 572.386 390.119 575.841 385.41 575.841C379.523 575.841 379.523 572.602 379.523 570.658V522.712C379.523 520.552 378.239 516.362 373.102 516.88C371.318 516.88 367.536 517.787 366.68 521.416V580.377C366.859 588.368 371.603 605.775 389.156 611.477L388.419 637.791L335.181 571.244H335.22C324.442 557.735 318 540.615 318 521.991C318 478.342 353.385 442.957 397.034 442.957C440.683 442.957 476.067 478.342 476.067 521.991Z" fill="#9DD74F"/>
<path d="M409.547 511.544C409.343 502.315 414.563 483.858 437.072 483.858C437.684 493.292 433.035 512.036 409.547 511.544Z" fill="white"/>
<path d="M397.314 496.163C403.838 488.165 412.973 468.846 397.314 455.557C390.79 461.709 381.655 478.444 397.314 496.163Z" fill="white"/>
<path d="M385.692 511.544C385.285 502.315 378.964 483.858 356.944 483.858C357.76 493.907 364.651 513.513 385.692 511.544Z" fill="white"/>
<path d="M535.255 488.718H514.349V499.968H533.599C535.015 499.968 536.067 500.291 536.755 500.937C537.463 501.562 537.817 502.395 537.817 503.437C537.817 504.478 537.474 505.332 536.786 505.999C536.099 506.645 535.036 506.968 533.599 506.968H514.349V519.999H535.974C537.432 519.999 538.526 520.343 539.255 521.03C540.005 521.697 540.38 522.593 540.38 523.718C540.38 524.801 540.005 525.687 539.255 526.374C538.526 527.041 537.432 527.374 535.974 527.374H510.755C508.734 527.374 507.276 526.926 506.38 526.03C505.505 525.134 505.067 523.687 505.067 521.687V487.249C505.067 485.916 505.265 484.832 505.661 483.999C506.057 483.145 506.672 482.53 507.505 482.155C508.359 481.759 509.442 481.562 510.755 481.562H535.255C536.734 481.562 537.828 481.895 538.536 482.562C539.265 483.207 539.63 484.062 539.63 485.124C539.63 486.207 539.265 487.082 538.536 487.749C537.828 488.395 536.734 488.718 535.255 488.718ZM547.161 522.968V485.968C547.161 484.259 547.536 482.968 548.286 482.093C549.057 481.218 550.088 480.78 551.38 480.78C552.672 480.78 553.713 481.218 554.505 482.093C555.297 482.947 555.692 484.239 555.692 485.968V522.968C555.692 524.697 555.286 525.999 554.474 526.874C553.682 527.728 552.651 528.155 551.38 528.155C550.13 528.155 549.109 527.707 548.317 526.812C547.547 525.916 547.161 524.634 547.161 522.968ZM588.349 512.905H571.661C571.682 514.843 572.067 516.551 572.817 518.03C573.588 519.509 574.599 520.624 575.849 521.374C577.119 522.124 578.515 522.499 580.036 522.499C581.057 522.499 581.984 522.384 582.817 522.155C583.672 521.905 584.494 521.53 585.286 521.03C586.078 520.509 586.807 519.957 587.474 519.374C588.14 518.791 589.005 517.999 590.067 516.999C590.505 516.624 591.13 516.437 591.942 516.437C592.817 516.437 593.526 516.676 594.067 517.155C594.609 517.634 594.88 518.312 594.88 519.187C594.88 519.957 594.578 520.864 593.974 521.905C593.369 522.926 592.453 523.916 591.224 524.874C590.015 525.812 588.484 526.593 586.63 527.218C584.797 527.843 582.682 528.155 580.286 528.155C574.807 528.155 570.547 526.593 567.505 523.468C564.463 520.343 562.942 516.103 562.942 510.749C562.942 508.228 563.317 505.895 564.067 503.749C564.817 501.582 565.911 499.728 567.349 498.187C568.786 496.645 570.557 495.468 572.661 494.655C574.765 493.822 577.099 493.405 579.661 493.405C582.994 493.405 585.849 494.114 588.224 495.53C590.619 496.926 592.411 498.739 593.599 500.968C594.786 503.197 595.38 505.468 595.38 507.78C595.38 509.926 594.765 511.322 593.536 511.968C592.307 512.593 590.578 512.905 588.349 512.905ZM571.661 508.062H587.13C586.922 505.145 586.13 502.968 584.755 501.53C583.401 500.072 581.609 499.343 579.38 499.343C577.255 499.343 575.505 500.082 574.13 501.562C572.776 503.02 571.953 505.187 571.661 508.062ZM623.849 524.249L616.317 511.874L611.692 516.249V523.03C611.692 524.676 611.255 525.947 610.38 526.843C609.526 527.718 608.536 528.155 607.411 528.155C606.099 528.155 605.067 527.718 604.317 526.843C603.567 525.968 603.192 524.676 603.192 522.968V486.593C603.192 484.697 603.557 483.259 604.286 482.28C605.015 481.28 606.057 480.78 607.411 480.78C608.724 480.78 609.765 481.228 610.536 482.124C611.307 483.02 611.692 484.343 611.692 486.093V506.78L621.286 496.718C622.474 495.468 623.38 494.614 624.005 494.155C624.63 493.697 625.39 493.468 626.286 493.468C627.349 493.468 628.234 493.812 628.942 494.499C629.651 495.166 630.005 496.009 630.005 497.03C630.005 498.28 628.849 499.947 626.536 502.03L622.005 506.187L630.755 519.937C631.401 520.957 631.859 521.739 632.13 522.28C632.422 522.801 632.567 523.301 632.567 523.78C632.567 525.134 632.192 526.207 631.442 526.999C630.713 527.77 629.744 528.155 628.536 528.155C627.494 528.155 626.692 527.874 626.13 527.312C625.567 526.749 624.807 525.728 623.849 524.249ZM639.755 494.218H640.692V489.093C640.692 487.718 640.724 486.645 640.786 485.874C640.869 485.082 641.078 484.405 641.411 483.843C641.744 483.259 642.224 482.791 642.849 482.437C643.474 482.062 644.172 481.874 644.942 481.874C646.026 481.874 647.005 482.28 647.88 483.093C648.463 483.634 648.828 484.301 648.974 485.093C649.14 485.864 649.224 486.968 649.224 488.405V494.218H652.349C653.557 494.218 654.474 494.509 655.099 495.093C655.744 495.655 656.067 496.384 656.067 497.28C656.067 498.426 655.609 499.228 654.692 499.687C653.797 500.145 652.505 500.374 650.817 500.374H649.224V516.062C649.224 517.395 649.265 518.426 649.349 519.155C649.453 519.864 649.703 520.447 650.099 520.905C650.515 521.343 651.182 521.562 652.099 521.562C652.599 521.562 653.276 521.478 654.13 521.312C654.984 521.124 655.651 521.03 656.13 521.03C656.817 521.03 657.432 521.312 657.974 521.874C658.536 522.416 658.817 523.093 658.817 523.905C658.817 525.28 658.067 526.332 656.567 527.062C655.067 527.791 652.911 528.155 650.099 528.155C647.432 528.155 645.411 527.707 644.036 526.812C642.661 525.916 641.755 524.676 641.317 523.093C640.901 521.509 640.692 519.395 640.692 516.749V500.374H639.567C638.338 500.374 637.401 500.082 636.755 499.499C636.109 498.916 635.786 498.176 635.786 497.28C635.786 496.384 636.119 495.655 636.786 495.093C637.474 494.509 638.463 494.218 639.755 494.218ZM670.442 515.843V522.968C670.442 524.697 670.036 525.999 669.224 526.874C668.411 527.728 667.38 528.155 666.13 528.155C664.901 528.155 663.89 527.718 663.099 526.843C662.307 525.968 661.911 524.676 661.911 522.968V499.218C661.911 495.384 663.297 493.468 666.067 493.468C667.484 493.468 668.505 493.916 669.13 494.812C669.755 495.707 670.099 497.03 670.161 498.78C671.182 497.03 672.224 495.707 673.286 494.812C674.369 493.916 675.807 493.468 677.599 493.468C679.39 493.468 681.13 493.916 682.817 494.812C684.505 495.707 685.349 496.895 685.349 498.374C685.349 499.416 684.984 500.28 684.255 500.968C683.547 501.634 682.776 501.968 681.942 501.968C681.63 501.968 680.869 501.78 679.661 501.405C678.474 501.009 677.422 500.812 676.505 500.812C675.255 500.812 674.234 501.145 673.442 501.812C672.651 502.457 672.036 503.426 671.599 504.718C671.161 506.009 670.859 507.551 670.692 509.343C670.526 511.114 670.442 513.28 670.442 515.843ZM719.536 510.812C719.536 513.353 719.14 515.697 718.349 517.843C717.557 519.989 716.411 521.832 714.911 523.374C713.411 524.916 711.619 526.103 709.536 526.937C707.453 527.749 705.109 528.155 702.505 528.155C699.922 528.155 697.599 527.739 695.536 526.905C693.474 526.072 691.682 524.884 690.161 523.343C688.661 521.78 687.515 519.947 686.724 517.843C685.953 515.718 685.567 513.374 685.567 510.812C685.567 508.228 685.963 505.864 686.755 503.718C687.547 501.572 688.682 499.739 690.161 498.218C691.64 496.697 693.432 495.53 695.536 494.718C697.64 493.884 699.963 493.468 702.505 493.468C705.088 493.468 707.432 493.884 709.536 494.718C711.64 495.551 713.442 496.739 714.942 498.28C716.442 499.822 717.578 501.655 718.349 503.78C719.14 505.905 719.536 508.249 719.536 510.812ZM710.974 510.812C710.974 507.332 710.203 504.624 708.661 502.687C707.14 500.749 705.088 499.78 702.505 499.78C700.838 499.78 699.369 500.218 698.099 501.093C696.828 501.947 695.849 503.218 695.161 504.905C694.474 506.593 694.13 508.562 694.13 510.812C694.13 513.041 694.463 514.989 695.13 516.655C695.817 518.322 696.786 519.603 698.036 520.499C699.307 521.374 700.797 521.812 702.505 521.812C705.088 521.812 707.14 520.843 708.661 518.905C710.203 516.947 710.974 514.249 710.974 510.812ZM734.036 498.187V499.218C735.536 497.239 737.172 495.791 738.942 494.874C740.734 493.937 742.786 493.468 745.099 493.468C747.349 493.468 749.359 493.957 751.13 494.937C752.901 495.916 754.224 497.301 755.099 499.093C755.661 500.134 756.026 501.259 756.192 502.468C756.359 503.676 756.442 505.218 756.442 507.093V522.968C756.442 524.676 756.047 525.968 755.255 526.843C754.484 527.718 753.474 528.155 752.224 528.155C750.953 528.155 749.922 527.707 749.13 526.812C748.338 525.916 747.942 524.634 747.942 522.968V508.749C747.942 505.937 747.547 503.791 746.755 502.312C745.984 500.812 744.432 500.062 742.099 500.062C740.578 500.062 739.192 500.52 737.942 501.437C736.692 502.332 735.776 503.572 735.192 505.155C734.776 506.426 734.567 508.801 734.567 512.28V522.968C734.567 524.697 734.161 525.999 733.349 526.874C732.557 527.728 731.526 528.155 730.255 528.155C729.026 528.155 728.015 527.707 727.224 526.812C726.432 525.916 726.036 524.634 726.036 522.968V498.312C726.036 496.687 726.39 495.478 727.099 494.687C727.807 493.874 728.776 493.468 730.005 493.468C730.755 493.468 731.432 493.645 732.036 493.999C732.64 494.353 733.119 494.884 733.474 495.593C733.849 496.301 734.036 497.166 734.036 498.187ZM520.536 594.468L513.192 565.28V596.905C513.192 598.655 512.797 599.968 512.005 600.843C511.234 601.718 510.203 602.155 508.911 602.155C507.661 602.155 506.64 601.728 505.849 600.874C505.057 599.999 504.661 598.676 504.661 596.905V560.655C504.661 558.655 505.182 557.312 506.224 556.624C507.265 555.916 508.672 555.562 510.442 555.562H513.317C515.047 555.562 516.297 555.718 517.067 556.03C517.859 556.343 518.442 556.905 518.817 557.718C519.192 558.53 519.619 559.853 520.099 561.687L526.755 586.78L533.411 561.687C533.89 559.853 534.317 558.53 534.692 557.718C535.067 556.905 535.64 556.343 536.411 556.03C537.203 555.718 538.463 555.562 540.192 555.562H543.067C544.838 555.562 546.244 555.916 547.286 556.624C548.328 557.312 548.849 558.655 548.849 560.655V596.905C548.849 598.655 548.453 599.968 547.661 600.843C546.89 601.718 545.849 602.155 544.536 602.155C543.307 602.155 542.297 601.718 541.505 600.843C540.713 599.968 540.317 598.655 540.317 596.905V565.28L532.974 594.468C532.494 596.364 532.099 597.759 531.786 598.655C531.494 599.53 530.942 600.332 530.13 601.062C529.317 601.791 528.192 602.155 526.755 602.155C525.672 602.155 524.755 601.916 524.005 601.437C523.255 600.978 522.672 600.384 522.255 599.655C521.838 598.926 521.505 598.124 521.255 597.249C521.026 596.353 520.786 595.426 520.536 594.468ZM581.599 586.905H564.911C564.932 588.843 565.317 590.551 566.067 592.03C566.838 593.509 567.849 594.624 569.099 595.374C570.369 596.124 571.765 596.499 573.286 596.499C574.307 596.499 575.234 596.384 576.067 596.155C576.922 595.905 577.744 595.53 578.536 595.03C579.328 594.509 580.057 593.957 580.724 593.374C581.39 592.791 582.255 591.999 583.317 590.999C583.755 590.624 584.38 590.437 585.192 590.437C586.067 590.437 586.776 590.676 587.317 591.155C587.859 591.634 588.13 592.312 588.13 593.187C588.13 593.957 587.828 594.864 587.224 595.905C586.619 596.926 585.703 597.916 584.474 598.874C583.265 599.812 581.734 600.593 579.88 601.218C578.047 601.843 575.932 602.155 573.536 602.155C568.057 602.155 563.797 600.593 560.755 597.468C557.713 594.343 556.192 590.103 556.192 584.749C556.192 582.228 556.567 579.895 557.317 577.749C558.067 575.582 559.161 573.728 560.599 572.187C562.036 570.645 563.807 569.468 565.911 568.655C568.015 567.822 570.349 567.405 572.911 567.405C576.244 567.405 579.099 568.114 581.474 569.53C583.869 570.926 585.661 572.739 586.849 574.968C588.036 577.197 588.63 579.468 588.63 581.78C588.63 583.926 588.015 585.322 586.786 585.968C585.557 586.593 583.828 586.905 581.599 586.905ZM564.911 582.062H580.38C580.172 579.145 579.38 576.968 578.005 575.53C576.651 574.072 574.859 573.343 572.63 573.343C570.505 573.343 568.755 574.082 567.38 575.562C566.026 577.02 565.203 579.187 564.911 582.062ZM603.599 572.187V573.218C605.099 571.239 606.734 569.791 608.505 568.874C610.297 567.937 612.349 567.468 614.661 567.468C616.911 567.468 618.922 567.957 620.692 568.937C622.463 569.916 623.786 571.301 624.661 573.093C625.224 574.134 625.588 575.259 625.755 576.468C625.922 577.676 626.005 579.218 626.005 581.093V596.968C626.005 598.676 625.609 599.968 624.817 600.843C624.047 601.718 623.036 602.155 621.786 602.155C620.515 602.155 619.484 601.707 618.692 600.812C617.901 599.916 617.505 598.634 617.505 596.968V582.749C617.505 579.937 617.109 577.791 616.317 576.312C615.547 574.812 613.994 574.062 611.661 574.062C610.14 574.062 608.755 574.52 607.505 575.437C606.255 576.332 605.338 577.572 604.755 579.155C604.338 580.426 604.13 582.801 604.13 586.28V596.968C604.13 598.697 603.724 599.999 602.911 600.874C602.119 601.728 601.088 602.155 599.817 602.155C598.588 602.155 597.578 601.707 596.786 600.812C595.994 599.916 595.599 598.634 595.599 596.968V572.312C595.599 570.687 595.953 569.478 596.661 568.687C597.369 567.874 598.338 567.468 599.567 567.468C600.317 567.468 600.994 567.645 601.599 567.999C602.203 568.353 602.682 568.884 603.036 569.593C603.411 570.301 603.599 571.166 603.599 572.187ZM655.817 597.343V596.249C654.797 597.541 653.724 598.624 652.599 599.499C651.474 600.374 650.244 601.02 648.911 601.437C647.578 601.874 646.057 602.093 644.349 602.093C642.286 602.093 640.432 601.666 638.786 600.812C637.161 599.957 635.901 598.78 635.005 597.28C633.942 595.468 633.411 592.864 633.411 589.468V572.562C633.411 570.853 633.797 569.582 634.567 568.749C635.338 567.895 636.359 567.468 637.63 567.468C638.922 567.468 639.963 567.895 640.755 568.749C641.547 569.603 641.942 570.874 641.942 572.562V586.218C641.942 588.197 642.109 589.864 642.442 591.218C642.776 592.551 643.369 593.603 644.224 594.374C645.099 595.124 646.276 595.499 647.755 595.499C649.192 595.499 650.547 595.072 651.817 594.218C653.088 593.364 654.015 592.249 654.599 590.874C655.078 589.666 655.317 587.02 655.317 582.937V572.562C655.317 570.874 655.713 569.603 656.505 568.749C657.297 567.895 658.328 567.468 659.599 567.468C660.869 567.468 661.89 567.895 662.661 568.749C663.432 569.582 663.817 570.853 663.817 572.562V597.28C663.817 598.905 663.442 600.124 662.692 600.937C661.963 601.749 661.015 602.155 659.849 602.155C658.682 602.155 657.713 601.739 656.942 600.905C656.192 600.051 655.817 598.864 655.817 597.343Z" fill="white"/>
</svg>
