<svg width="13" height="16" viewBox="0 0 13 16" fill="none" xmlns="http://www.w3.org/2000/svg">
<path d="M4.0127 15.4307C4.0127 15.6455 3.96615 15.7959 3.87305 15.8818C3.78711 15.9606 3.63672 16 3.42188 16H1.13379C0.918945 16 0.764974 15.9606 0.671875 15.8818C0.585938 15.7959 0.542969 15.6455 0.542969 15.4307V3.47461C0.542969 2.75846 0.607422 2.19271 0.736328 1.77734C0.872396 1.35482 1.13021 1.05404 1.50977 0.875C1.89648 0.688802 2.45866 0.595703 3.19629 0.595703H6.04297C9.78125 0.595703 11.6504 2.03158 11.6504 4.90332C11.6504 5.77702 11.5036 6.49316 11.21 7.05176C10.9163 7.61035 10.5511 8.0472 10.1143 8.3623C9.67741 8.67025 9.24772 8.90299 8.8252 9.06055V9.11426C9.30501 9.42936 9.75977 9.84473 10.1895 10.3604C10.6263 10.8688 11.0202 11.4238 11.3711 12.0254C11.722 12.6198 12.0192 13.2106 12.2627 13.7979C12.5062 14.3779 12.6745 14.8971 12.7676 15.3555C12.8105 15.5703 12.8105 15.7314 12.7676 15.8389C12.7318 15.9463 12.61 16 12.4023 16H9.9209C9.7347 16 9.56999 15.9606 9.42676 15.8818C9.29069 15.8031 9.16536 15.6204 9.05078 15.334C8.50651 13.9661 7.87988 12.8525 7.1709 11.9932C6.46191 11.1266 5.77799 10.432 5.11914 9.90918C4.69661 9.57259 4.48535 9.33268 4.48535 9.18945C4.48535 9.07487 4.55339 8.91732 4.68945 8.7168C4.77539 8.59505 4.90072 8.44824 5.06543 8.27637C5.23014 8.10449 5.37337 7.97559 5.49512 7.88965C5.61686 7.80371 5.71354 7.75 5.78516 7.72852C5.86393 7.70703 5.9821 7.69629 6.13965 7.69629C6.6696 7.69629 7.11003 7.51367 7.46094 7.14844C7.81901 6.7832 7.99805 6.20671 7.99805 5.41895C7.99805 4.67415 7.80827 4.12988 7.42871 3.78613C7.05632 3.43522 6.54069 3.25977 5.88184 3.25977H5.2373C4.76465 3.25977 4.44238 3.36003 4.27051 3.56055C4.09863 3.76107 4.0127 4.10482 4.0127 4.5918V15.4307Z" fill="#9DD74F"/>
</svg>
