<svg width="32" height="32" viewBox="0 0 32 32" fill="none" xmlns="http://www.w3.org/2000/svg">
<path fill-rule="evenodd" clip-rule="evenodd" d="M4 16C4 21.9333 8.33333 26.8667 14 27.8667L14.0675 27.8126C14.045 27.8083 14.0225 27.8039 14 27.7994V19.3327H11V15.9993H14V13.3327C14 10.3327 15.9333 8.66602 18.6667 8.66602C19.5333 8.66602 20.4667 8.79935 21.3333 8.93268V11.9993H19.8C18.3333 11.9993 18 12.7327 18 13.666V15.9993H21.2L20.6667 19.3327H18V27.7994C17.9775 27.8039 17.955 27.8083 17.9325 27.8126L18 27.8667C23.6667 26.8667 28 21.9333 28 16C28 9.4 22.6 4 16 4C9.4 4 4 9.4 4 16Z" fill="white"/>
</svg>
