<svg width="26" height="30" viewBox="0 0 26 30" fill="none" xmlns="http://www.w3.org/2000/svg">
<path fill-rule="evenodd" clip-rule="evenodd" d="M13.0021 0.666504C7.9005 0.666504 3.0334 3.68388 0.99618 8.44608C-0.89976 12.878 0.126618 16.6496 2.26362 19.8792C4.01568 22.5271 6.57109 24.8902 8.87651 27.0222L8.87655 27.0222L8.87656 27.0222L8.87659 27.0222L8.87709 27.0227C9.31653 27.4291 9.7469 27.8271 10.1609 28.217L10.1631 28.2191C10.9298 28.9369 11.9482 29.3332 13.0021 29.3332C14.0559 29.3332 15.0744 28.9369 15.8411 28.2191C16.2325 27.8525 16.6382 27.4788 17.0521 27.0974L17.0521 27.0974C19.3826 24.9501 21.9739 22.5626 23.7443 19.881C25.8788 16.6481 26.9015 12.8725 25.0079 8.44608C22.9707 3.68388 18.1036 0.666504 13.0021 0.666504ZM13 8.33317C10.0545 8.33317 7.66667 10.721 7.66667 13.6665C7.66667 16.612 10.0545 18.9998 13 18.9998C15.9455 18.9998 18.3333 16.612 18.3333 13.6665C18.3333 10.721 15.9455 8.33317 13 8.33317Z" fill="#FF3210"/>
</svg>
