<svg width="32" height="32" viewBox="0 0 32 32" fill="none" xmlns="http://www.w3.org/2000/svg">
<path fill-rule="evenodd" clip-rule="evenodd" d="M25.3904 7.84799C26.4184 8.12476 27.2289 8.9353 27.5057 9.9633C28.0197 11.8414 27.9999 15.7557 27.9999 15.7557C27.9999 15.7557 27.9999 19.6502 27.5057 21.5283C27.2289 22.5563 26.4184 23.3669 25.3904 23.6436C23.5123 24.1379 15.9999 24.1379 15.9999 24.1379C15.9999 24.1379 8.50739 24.1379 6.60954 23.6239C5.58154 23.3471 4.771 22.5366 4.49423 21.5086C4 19.6502 4 15.7359 4 15.7359C4 15.7359 4 11.8414 4.49423 9.9633C4.771 8.9353 5.60131 8.10499 6.60954 7.82822C8.48763 7.33398 15.9999 7.33398 15.9999 7.33398C15.9999 7.33398 23.5123 7.33398 25.3904 7.84799ZM19.855 15.598L13.6079 19.196V12L19.855 15.598Z" fill="white"/>
</svg>
